#File written by LIBUNFOLD3D. Compilation :Jun 29 2015,14:16:05
mtllib 7daoju.mtl
#begin vertices
v -3.401989 -0.049141 2.736351
v 0.319393 -0.049141 2.736351
v -3.401989 0.213116 2.736351
v 0.319393 0.213116 2.736351
v -3.401989 0.213116 -0.985031
v 0.319393 0.213116 -0.985031
v -3.401989 -0.049141 -0.985031
v 0.319393 -0.049141 -0.985031
v 3.819328 -0.049141 -0.985031
v 3.819328 -0.049141 2.736351
v 3.819328 0.213116 -0.985031
v 3.819328 0.213116 2.736351
v 0.319393 0.213116 -4.542602
v 0.319393 -0.049141 -4.542602
v 3.819328 0.213116 -4.542602
v 3.819328 -0.049141 -4.542602
v -3.401989 0.213116 -0.628924
v 0.319393 0.213116 -0.628924
v 3.819328 0.213116 -0.628924
v 3.819328 -0.049141 -0.628924
v 0.319393 -0.049141 -0.628924
v -3.401989 -0.049141 -0.628924
v 0.581257 -0.049141 -0.985031
v 0.581257 -0.049141 -4.542602
v 0.581257 0.213116 -4.542602
v 0.581257 0.213116 -0.985031
v 0.581257 0.213116 -0.628924
v 0.581257 0.213116 2.736351
v 0.581257 -0.049141 2.736351
v 0.581257 -0.049141 -0.628924
v -3.401989 2.395587 -0.628924
v 0.319393 2.395587 -0.628924
v 0.319393 2.395587 -0.985031
v -3.401989 2.395587 -0.985031
v 0.581257 2.395587 -0.985031
v 0.581257 2.395587 -4.542602
v 0.319393 2.395587 -4.542602
v 0.581257 2.395586 -0.628924
v 0.581257 1.382104 -0.628924
v 0.581257 1.029701 -0.628924
v 0.581257 1.382104 -0.985031
v 0.581257 1.029701 -0.985031
v 0.581257 1.382104 -4.542602
v 0.581257 1.029701 -4.542602
v 0.319393 1.382104 -4.542602
v 0.319393 1.029701 -4.542602
v 0.319393 1.382104 -0.985031
v 0.319393 1.029701 -0.985031
v -3.401989 1.382104 -0.985031
v -3.401989 1.029701 -0.985031
v -3.401989 1.029701 -0.628924
v -3.401989 1.382104 -0.628924
v 0.319393 1.029701 -0.628924
v 0.319393 1.382104 -0.628924
v -3.401989 1.029701 1.152209
v -3.401989 1.382104 1.152209
v 0.319393 1.029701 1.152209
v 0.319393 1.382104 1.152209
v 0.581257 1.029701 1.152209
v 0.581257 1.382104 1.152209
v 2.36239 1.029701 -0.628924
v 2.36239 1.382104 -0.628924
v 2.36239 1.029701 -0.985031
v 2.36239 1.382104 -0.985031
v 2.36239 1.029701 -4.542602
v 2.36239 1.382104 -4.542602
v -3.401989 0.213116 2.286056
v 0.319393 0.213116 2.286056
v 0.581257 0.213116 2.286056
v 3.819328 0.213116 2.286056
v 3.819328 -0.049141 2.286056
v 0.581257 -0.049141 2.286056
v 0.319393 -0.049141 2.286056
v -3.401989 -0.049141 2.286056
v 3.369572 -0.049141 -0.628924
v 3.369572 -0.049141 -0.985031
v 3.369572 -0.049141 -4.542602
v 3.369572 0.213116 -4.542602
v 3.369572 0.213116 -0.985031
v 3.369572 0.213116 -0.628924
v 3.369572 0.213116 2.286056
v 3.369572 0.213116 2.736351
v 3.369572 -0.049141 2.736351
v 3.369572 -0.049141 2.286056
v -2.96335 -0.049141 2.736351
v -2.96335 0.213116 2.736351
v -2.96335 0.213116 2.286056
v -2.96335 0.213116 -0.628924
v -2.96335 1.029701 -0.628924
v -2.96335 1.029701 1.152209
v -2.96335 1.382104 1.152209
v -2.96335 1.382104 -0.628924
v -2.96335 2.395587 -0.628924
v -2.96335 2.395587 -0.985031
v -2.96335 1.382104 -0.985031
v -2.96335 1.029701 -0.985031
v -2.96335 0.213116 -0.985031
v -2.96335 -0.049141 -0.985031
v -2.96335 -0.049141 -0.628924
v -2.96335 -0.049141 2.286056
v 0.319393 0.213116 -4.177916
v 0.319393 -0.049141 -4.177916
v 0.581257 -0.049141 -4.177916
v 3.369572 -0.049141 -4.177916
v 3.819328 -0.049141 -4.177916
v 3.819328 0.213116 -4.177916
v 3.369572 0.213116 -4.177916
v 0.581257 0.213116 -4.177916
v 0.581257 1.029701 -4.177916
v 2.36239 1.029701 -4.177916
v 2.36239 1.382104 -4.177916
v 0.581257 1.382104 -4.177916
v 0.581257 2.395587 -4.177916
v 0.319393 2.395587 -4.177916
v 0.319393 1.382104 -4.177916
v 0.319393 1.029701 -4.177916
#end vertices

#begin 193 textures vertices 
vt 0.467961 0.4592086 0
vt 0.4451453 0.2608134 0
vt 0.4699013 0.4734246 0
vt 0.4597872 0.2599233 0
vt 0.2512019 0.4853702 0
vt 0.2207031 0.2814184 0
vt 0.2651662 0.4826854 0
vt 0.2313651 0.2718458 0
vt 0.2555074 0.06941128 0
vt 0.4508611 0.07776103 0
vt 0.2575079 0.05493648 0
vt 0.4518922 0.06354753 0
vt 0.01582805 0.2134303 0
vt 0.02988533 0.2170718 0
vt 0.05837045 0.030385 0
vt 0.07223712 0.03387617 0
vt 0.2862436 0.4939331 0
vt 0.7453584 0.2244114 0
vt 0.2752112 0.0568007 0
vt 0.2735995 0.07131349 0
vt 0.2529697 0.2709909 0
vt 0.2840685 0.4794465 0
vt 0.2334895 0.2560751 0
vt 0.4647564 0.4360286 0
vt 0.02549666 0.2304342 0
vt 0.6200815 0.3046823 0
vt 0.7576307 0.2168736 0
vt 0.4593464 0.2466444 0
vt 0.4447679 0.2473116 0
vt 0.2534097 0.2563841 0
vt 0.2371947 0.6635709 0
vt 0.0337791 0.6862333 0
vt 0.9708168 0.716599 0
vt 0.2350261 0.6441057 0
vt 0.9673152 0.7305692 0
vt 0.7775215 0.6829986 0
vt 0.781023 0.6690284 0
vt 0.01946528 0.6878281 0
vt 0.02563713 0.7432263 0
vt 0.6848517 0.6094265 0
vt 0.9537633 0.7846378 0
vt 0.4122104 0.773688 0
vt 0.7234529 0.6694467 0
vt 0.9071926 0.4602336 0
vt 0.7269545 0.6554765 0
vt 0.708154 0.6507643 0
vt 0.9843687 0.6625304 0
vt 0.9890809 0.64373 0
vt 0.2904244 0.6379338 0
vt 0.3096872 0.6357877 0
vt 0.3118558 0.655253 0
vt 0.2433666 0.7189692 0
vt 0.3782223 0.773688 0
vt 0.03995096 0.7416316 0
vt 0.3678138 0.6094265 0
vt 0.3678138 0.6288085 0
vt 0.5724879 0.6094265 0
vt 0.5724879 0.6288085 0
vt 0.5868903 0.6094265 0
vt 0.5868903 0.6288085 0
vt 0.5942793 0.4465646 0
vt 0.5934335 0.4659282 0
vt 0.6138464 0.4474194 0
vt 0.6130005 0.4667829 0
vt 0.8093245 0.4559584 0
vt 0.8084787 0.475322 0
vt 0.4452983 0.4764852 0
vt 0.6614502 0.08779989 0
vt 0.6737226 0.0802621 0
vt 0.4274222 0.06248725 0
vt 0.4262773 0.07682191 0
vt 0.419642 0.248448 0
vt 0.4198284 0.2621748 0
vt 0.4433326 0.4622317 0
vt 0.2707867 0.0962865 0
vt 0.2521474 0.09437544 0
vt 0.06690962 0.05796362 0
vt 0.05290104 0.05439153 0
vt 0.2610787 0.03021295 0
vt 0.2778358 0.03206543 0
vt 0.4875789 0.10013 0
vt 0.4766161 0.06480897 0
vt 0.4757821 0.07924531 0
vt 0.4242539 0.1012939 0
vt 0.4920175 0.4559714 0
vt 0.4731953 0.4972747 0
vt 0.4486101 0.5004356 0
vt 0.2895928 0.5180518 0
vt 0.1976731 0.773688 0
vt 0.3919387 0.6094265 0
vt 0.3919387 0.6288085 0
vt 0.21939 0.7216405 0
vt 0.2132181 0.6662421 0
vt 0.2110495 0.6467769 0
vt 0.2048776 0.5913786 0
vt 0.2027315 0.5721158 0
vt 0.2473891 0.4614209 0
vt 0.2612607 0.4585372 0
vt 0.2802779 0.4550952 0
vt 0.4401184 0.4385236 0
vt 0.04497497 0.2360221 0
vt 0.04943377 0.2222559 0
vt 0.05344763 0.208707 0
vt 0.08634794 0.06296288 0
vt 0.09079863 0.03863792 0
vt 0.09309689 0.02441164 0
vt 0.09731396 0 0
vt 0.7955213 0.3123461 0
vt 0.7935613 0.357215 0
vt 0.7892861 0.4550831 0
vt 0.7884403 0.4744466 0
vt 0.7834252 0.7419437 0
vt 0.7969772 0.6878751 0
vt 0.8004787 0.6739049 0
vt 0.8140307 0.6198363 0
vt 0.8187429 0.6010359 0
vt 0.3543228 0.6308149 0
vt 0.8102062 0.5525952 0
vt 0.829662 0.5574717 0
vt 0.1735482 0.7287763 0
vt 0.6610883 0.6538154 0
vt 0.1977587 0.5274802 0
vt 0.01831968 0.5474714 0
vt 0.5915116 0.3189057 0
vt 0.1976731 0.7287763 0
vt 0.3926247 0.7287763 0
vt 0.3782223 0.7287763 0
vt 0.7678813 0.2335626 0
vt 0.859789 0.3831982 0
vt 0.8985566 0.1533005 0
vt 0.5076034 0.1822942 0
vt 0.888306 0.1366115 0
vt 0.9904643 0.3029361 0
vt 0.8043978 0 0
vt 0 0.1950408 0
vt 0.4847125 0.2581875 0
vt 0.4842941 0.2455542 0
vt 0.8042035 0.57319 0
vt 0.6087254 0.564651 0
vt 0.5985545 0.3486966 0
vt 0.7841651 0.5723147 0
vt 0.4955654 0.461653 0
vt 0.6181215 0.3495513 0
vt 0.3678138 0.5114651 0
vt 0.2698524 0.6288085 0
vt 0.3919387 0.7267699 0
vt 0.3919387 0.5114651 0
vt 0.3926247 0.773688 0
vt 0.5724879 0.5114651 0
vt 0.5724879 0.7267699 0
vt 0.5868903 0.7267699 0
vt 0.5868903 0.5114651 0
vt 0.2698524 0.6094265 0
vt 0.3678138 0.7267699 0
vt 0.6848517 0.6288085 0
vt 0.5891583 0.5637962 0
vt 0.8135997 0.3580904 0
vt 0.4964113 0.4422895 0
vt 0.9063468 0.4795971 0
vt 0.07703252 0.01423163 0
vt 0.4791171 0.4347323 0
vt 0.4629031 0.1006361 0
vt 0.01960426 0.1999514 0
vt 0.5038651 0.432321 0
vt 0.4537521 0.03901701 0
vt 0.4939202 0.4703196 0
vt 0.06298356 0.01082643 0
vt 0.03337773 0.04946445 0
vt 0.4292237 0.03775035 0
vt 0.0337321 0.2035989 0
vt 0.4486808 0.1011062 0
vt 0.03897991 0.02548914 0
vt 0.2673553 0.4970216 0
vt 0.2288542 0.5887074 0
vt 0.2267081 0.5694445 0
vt 0.7992872 0.5961594 0
vt 0.7945749 0.6149598 0
vt 0.7046525 0.6647345 0
vt 0.7639695 0.7370672 0
vt 0.8155597 0.3132214 0
vt 0.6645898 0.6398452 0
vt 0.2217353 0.5248089 0
vt 0.1735482 0.773688 0
vt 0.3564914 0.6502801 0
vt 0.292593 0.657399 0
vt 0.03161047 0.6667681 0
vt 0.006171854 0.7453949 0
vt 0.01729664 0.6683628 0
vt 1 0.6001658 0
vt 0.02329251 0.592107 0
vt 0.02543857 0.6113698 0
vt 0.4122104 0.7287763 0
vt 0 0.6899966 0
#end 193 textures vertices 

#begin 374 normals 
vn 0 0 1
vn 0 0 1
vn 0 0 1
vn 0 0 1
vn 0 1 0
vn 0 1 0
vn 0 1 0
vn 0 1 0
vn 0 0 -1
vn 0 0 -1
vn 0 0 -1
vn 0 0 -1
vn 0 -1 0
vn 0 -1 0
vn 0 -1 0
vn 0 -1 0
vn 1 0 0
vn 1 0 0
vn 1 0 0
vn 1 0 0
vn -1 0 0
vn -1 0 0
vn -1 0 0
vn -1 0 0
vn 0 -1 0
vn 0 -1 0
vn 0 -1 0
vn 0 -1 0
vn 0 0 -1
vn 0 0 -1
vn 0 0 -1
vn 0 0 -1
vn 0 1 0
vn 0 1 0
vn 0 1 0
vn 0 1 0
vn 0 0 1
vn 0 0 1
vn 0 0 1
vn 0 0 1
vn -1 0 0
vn -1 0 0
vn -1 0 0
vn -1 0 0
vn 0 1 0
vn 0 1 0
vn 1 0 0
vn 1 0 0
vn 0 -1 0
vn 0 -1 0
vn 0 1 0
vn 0 1 0
vn 0 1 0
vn 0 1 0
vn 0 1 0
vn 0 1 0
vn 0 1 0
vn 0 1 0
vn 1 0 0
vn 1 0 0
vn 1 0 0
vn 1 0 0
vn 0 -1 0
vn 0 -1 0
vn 0 -1 0
vn 0 -1 0
vn 0 -1 0
vn 0 -1 0
vn 0 -1 0
vn 0 -1 0
vn -1 0 0
vn -1 0 0
vn -1 0 0
vn -1 0 0
vn 0 -1 0
vn 0 -1 0
vn 0 -1 0
vn 0 -1 0
vn 0 0 -1
vn 0 0 -1
vn 0 0 -1
vn 0 0 -1
vn 0 1 0
vn 0 1 0
vn 0 1 0
vn 0 1 0
vn 0 1 0
vn 1e-006 1 1e-006
vn 0 1 0
vn 0 1 0
vn 0 1 0
vn 0 1 0
vn 0 0 1
vn 0 0 1
vn 0 0 1
vn 0 0 1
vn 0 -1 0
vn 0 -1 0
vn 0 -1 0
vn 0 -1 0
vn 0 -1 0
vn 0 -1 0
vn -1 0 0
vn -1 0 0
vn -1 0 0
vn -1 0 0
vn -0 0 1
vn -0 0 1
vn -0 0 1
vn -0 0 1
vn -0 0 1
vn -0 0 1
vn -0 0 1
vn -0 0 1
vn 1 0 0
vn 1 0 0
vn 1 0 0
vn 1 0 0
vn 1 0 0
vn 1 0 0
vn 0 0 -1
vn 0 0 -1
vn 0 0 -1
vn 0 0 -1
vn -1 0 0
vn -1 0 0
vn -1 0 0
vn -1 0 0
vn 0 0 -1
vn 0 0 -1
vn 0 0 -1
vn 0 0 -1
vn 0 0 -1
vn 0 0 -1
vn 1 0 0
vn 1 0 0
vn 1 0 0
vn 1 0 0
vn 0 0 -1
vn 0 0 -1
vn -1 0 0
vn -1 0 0
vn 1 0 0
vn 1 0 0
vn 1 0 0
vn 1 0 0
vn 1 0 0
vn 1 0 0
vn 1 0 0
vn 1 0 0
vn 0 0 1
vn 0 0 1
vn 0 0 1
vn 0 0 1
vn 0 0 1
vn 0 0 1
vn 0 0 1
vn 0 0 1
vn 1e-006 0 1
vn 1e-006 0 1
vn 1e-006 0 1
vn 1e-006 0 1
vn 0 0 1
vn 0 0 1
vn 0 0 1
vn 0 0 1
vn 0 0 1
vn 0 0 1
vn 0 0 1
vn 0 0 1
vn -1 0 0
vn -1 0 0
vn -1 0 0
vn -1 0 0
vn -0 -1 0
vn -0 -1 0
vn -0 -1 0
vn -0 -1 0
vn 0 1 0
vn 0 1 0
vn 0 1 0
vn 0 1 0
vn -0 -1 0
vn -0 -1 0
vn -0 -1 0
vn -0 -1 0
vn 1 0 0
vn 1 0 0
vn 1 0 0
vn 1 0 0
vn 1e-006 1 0
vn 0 1 0
vn 0 1 0
vn 1e-006 1 0
vn 0 -1 -1e-006
vn 0 -1 -0
vn 0 -1 -0
vn 0 -1 -1e-006
vn 0 1 0
vn 0 1 1e-006
vn 0 1 1e-006
vn 0 1 0
vn 0 -1 0
vn 0 -1 0
vn 0 0 -1
vn 0 0 -1
vn 0 1 0
vn 0 1 0
vn -1 0 0
vn -1 0 0
vn 0 1 0
vn 0 1 0
vn 0 1 0
vn 0 1 0
vn 0 1 0
vn 0 1 0
vn 0 1 0
vn 0 1 0
vn 0 1 0
vn 0 1 0
vn 0 1 0
vn 0 1 0
vn 1 0 0
vn 1 0 0
vn 1 0 0
vn 1 0 0
vn 0 -1 0
vn 0 -1 0
vn 0 -1 0
vn 0 -1 0
vn 0 -1 0
vn 0 -1 0
vn 0 -1 0
vn 0 -1 0
vn 0 -1 0
vn 0 -1 0
vn 0 -1 0
vn 0 -1 0
vn -1 0 0
vn -1 0 0
vn -1 0 0
vn -1 0 0
vn 0 -1 0
vn 0 -1 0
vn 0 -1 0
vn 0 -1 0
vn 0 -1 0
vn 0 -1 0
vn 0 0 -1
vn 0 0 -1
vn 0 0 -1
vn 0 0 -1
vn 0 1 0
vn 0 1 0
vn 0 1 0
vn 0 1 0
vn 0 1 0
vn 0 1 0
vn 0 1 0
vn 0 1 0
vn 0 1 0
vn 0 1 0
vn 0 1 0
vn 0 1 0
vn 0 1 0
vn 0 1 0
vn 0 0 1
vn 0 0 1
vn 0 0 1
vn 0 0 1
vn 0 -1 0
vn 0 -1 0
vn 0 -1 0
vn 0 -1 0
vn 0 -1 0
vn 0 -1 0
vn 0 -1 0
vn 0 -1 0
vn 0 0 1
vn 0 0 1
vn 0 1 0
vn 0 1 0
vn 0 1 0
vn 0 1 0
vn 0 0 1
vn 0 0 1
vn 0 0 1
vn 0 0 1
vn 0 -1 0
vn 0 -1 0
vn -0 0 1
vn -0 0 1
vn 0 1 0
vn 0 1 0
vn 0 0 1
vn 0 0 1
vn 0 0 1
vn 0 0 1
vn 0 1 0
vn 0 1 0
vn 0 0 -1
vn 0 0 -1
vn 0 0 -1
vn 0 0 -1
vn 0 0 -1
vn 0 0 -1
vn 0 0 -1
vn 0 0 -1
vn 0 0 -1
vn 0 0 -1
vn 0 -1 0
vn 0 -1 0
vn 0 -1 0
vn 0 -1 0
vn 0 -1 0
vn 0 -1 0
vn -1 0 0
vn -1 0 0
vn -1 0 0
vn -1 0 0
vn 0 -1 0
vn 0 -1 0
vn 0 -1 0
vn 0 -1 0
vn 0 -1 0
vn 0 -1 0
vn 0 -1 0
vn 0 -1 0
vn 0 -1 0
vn 0 -1 0
vn 0 -1 0
vn 0 -1 0
vn 1 0 0
vn 1 0 0
vn 1 0 0
vn 1 0 0
vn 0 1 0
vn 0 1 0
vn 0 1 0
vn 0 1 0
vn 0 1 0
vn 0 1 0
vn 0 1 0
vn 0 1 0
vn 1 0 0
vn 1 0 0
vn 1 0 0
vn 1 0 0
vn 0 -1 0
vn 0 -1 0
vn 0 -1 0
vn 0 -1 0
vn 1 0 0
vn 1 0 0
vn 1 0 0
vn 1 0 0
vn 0 1 0
vn 0 1 0
vn 0 1 0
vn 0 1 0
vn 1 0 0
vn 1 0 0
vn 1 0 0
vn 1 0 0
vn 0 1 0
vn 0 1 0
vn 0 1 0
vn 0 1 0
vn -1 0 0
vn -1 0 0
vn -1 0 0
vn -1 0 0
vn -1 0 0
vn -1 0 0
#end 374 normals 

#begin 114 faces
usemtl initialShadingGroup
g pCube1
s off
f 1/1/1 85/85/2 86/166/3 3/3/4 
f 31/31/5 93/93/6 94/94/7 34/34/8 
s 1
f 5/5/9 97/97/10 98/98/11 7/7/12 
s off
f 7/7/13 98/98/14 99/99/15 22/22/16 
s 2
f 19/19/17 20/20/18 9/9/19 11/11/20 
s 3
f 7/7/21 22/22/22 17/17/23 5/173/24 
s 4
f 20/20/25 75/75/26 76/76/27 9/9/28 
s off
f 77/77/29 78/78/30 15/15/31 16/16/32 
s 5
f 79/79/33 80/80/34 19/19/35 11/11/36 
s off
f 82/82/37 83/83/38 10/10/39 12/12/40 
s 6
f 8/8/41 6/6/42 101/101/43 102/102/44 
s 5
f 106/106/45 107/107/46 79/79/33 11/11/36 
s 2
f 11/11/20 9/9/19 105/105/47 106/106/48 
s 4
f 9/9/28 76/76/27 104/104/49 105/105/50 
s off
f 67/67/51 87/87/52 88/88/53 17/17/54 
f 19/19/55 80/80/56 81/169/57 70/70/58 
f 70/70/59 71/71/60 20/20/61 19/19/62 
f 71/71/63 84/84/64 75/75/65 20/20/66 
f 22/22/67 99/99/68 100/100/69 74/74/70 
f 17/17/71 22/22/72 74/74/73 67/67/74 
s 7
f 102/102/75 103/103/76 23/23/77 8/8/78 
s 8
f 14/14/79 13/13/80 25/163/81 24/170/82 
s 9
f 33/33/83 35/35/84 113/113/85 114/114/86 
f 33/186/83 32/32/87 38/38/88 35/188/84 
s 10
f 68/68/89 69/69/90 27/27/91 18/18/92 
s 11
f 4/4/93 2/2/94 29/29/95 28/28/96 
s 12
f 72/72/97 73/73/98 21/21/99 30/30/100 
s 7
f 23/23/77 30/30/101 21/21/102 8/8/78 
s 3
f 52/185/103 49/49/104 50/50/105 51/51/106 
s off
f 56/56/107 55/55/108 90/90/109 91/91/110 
s 14
f 58/58/111 57/57/112 59/59/113 60/60/114 
s 15
f 62/62/115 61/61/116 63/63/117 64/64/118 
f 64/64/118 63/63/117 110/110/119 111/111/120 
s 8
f 43/43/121 44/178/122 46/46/123 45/45/124 
s 6
f 115/115/125 116/116/126 48/48/127 47/47/128 
s 1
f 95/95/129 96/96/130 50/175/131 49/174/132 
f 94/94/133 95/95/129 49/174/132 34/34/134 
s 17
f 41/41/135 112/112/136 113/113/137 35/35/138 
s 8
f 43/43/121 45/45/124 37/37/139 36/36/140 
s 6
f 114/114/141 115/115/125 47/47/128 33/33/142 
s 17
f 39/39/143 41/187/135 35/193/138 38/38/144 
s 18
f 27/126/145 26/192/146 42/42/147 40/148/148 
f 26/26/146 108/108/149 109/109/150 42/143/147 
s 8
f 25/121/81 13/181/80 46/46/123 44/178/122 
s 6
f 116/116/126 101/119/43 6/189/42 48/48/127 
s 1
f 96/96/130 97/122/10 5/182/9 50/175/131 
s off
f 88/125/151 89/89/152 51/183/153 17/120/154 
f 31/31/155 52/52/156 92/92/157 93/93/158 
f 40/148/159 53/53/160 18/127/161 27/126/162 
f 39/142/163 40/158/164 61/61/165 62/62/166 
f 32/32/167 54/54/168 39/39/169 38/38/170 
f 52/145/171 51/153/172 55/55/173 56/56/174 
f 51/144/175 89/147/176 90/90/177 55/55/178 
f 91/91/179 92/146/180 52/154/181 56/56/182 
s 19
f 53/149/183 40/152/184 59/59/185 57/57/186 
s off
f 40/40/187 39/155/188 60/60/189 59/59/190 
s 20
f 39/151/191 54/150/192 58/58/193 60/60/194 
s 21
f 40/140/195 42/143/196 63/63/197 61/61/198 
s 22
f 41/139/199 39/156/200 62/62/201 64/64/202 
s 21
f 42/143/196 109/109/203 110/110/204 63/63/197 
s 8
f 44/44/122 43/159/121 66/66/205 65/65/206 
s 22
f 111/111/207 112/141/208 41/139/199 64/64/202 
s 3
f 31/31/209 34/34/210 49/49/104 52/185/103 
f 51/51/106 50/50/105 5/117/24 17/184/23 
s off
f 3/3/211 86/86/212 87/87/213 67/67/214 
s 23
f 28/28/215 69/137/216 68/136/217 4/4/218 
s off
f 70/70/219 81/169/220 82/165/221 12/12/222 
f 10/10/223 71/71/224 70/70/225 12/12/226 
f 83/171/227 84/84/228 71/71/229 10/10/230 
s 24
f 2/2/231 73/73/232 72/72/233 29/29/234 
s off
f 74/74/235 100/100/236 85/24/237 1/1/238 
f 67/67/239 74/74/240 1/1/241 3/3/242 
s 25
f 76/76/243 75/75/244 30/30/245 23/23/246 
f 103/103/247 104/104/248 76/76/243 23/23/246 
s off
f 24/170/249 25/163/250 78/78/251 77/77/252 
s 26
f 107/133/253 108/129/254 26/128/255 79/130/256 
f 26/128/255 27/27/257 80/132/258 79/130/256 
s off
f 81/134/259 80/132/260 27/27/261 69/69/262 
f 82/162/263 81/81/264 69/137/265 28/28/266 
f 28/28/267 29/29/268 83/171/269 82/162/270 
f 29/29/271 72/72/272 84/84/273 83/171/274 
f 75/75/275 84/84/276 72/72/277 30/30/278 
s 11
f 86/161/279 85/24/280 2/2/94 4/4/93 
s 23
f 87/164/281 86/161/282 4/4/218 68/136/217 
s 10
f 88/124/283 87/131/284 68/68/89 18/18/92 
s off
f 18/127/285 53/53/286 89/89/287 88/125/288 
s 19
f 90/90/289 89/147/290 53/149/183 57/57/186 
s 14
f 91/91/291 90/90/292 57/57/112 58/58/111 
s 20
f 54/150/192 92/146/293 91/91/294 58/58/193 
s off
f 93/93/295 92/92/296 54/54/297 32/32/298 
s 9
f 94/94/299 93/93/300 32/32/87 33/186/83 
s 27
f 47/191/301 95/95/302 94/94/303 33/186/304 
f 47/191/301 48/190/305 96/96/306 95/95/302 
f 6/123/307 97/122/308 96/96/306 48/190/305 
f 98/98/309 97/97/308 6/6/307 8/8/310 
s 7
f 99/99/311 98/98/312 8/8/78 21/21/102 
s 12
f 100/100/313 99/99/314 21/21/99 73/73/98 
s 24
f 85/24/315 100/100/316 73/73/232 2/2/231 
s 28
f 102/102/317 101/101/318 13/25/319 14/14/320 
s off
f 24/170/321 103/103/322 102/102/323 14/14/324 
f 77/77/325 104/104/326 103/103/327 24/170/328 
f 105/105/329 104/104/330 77/77/331 16/16/332 
f 106/167/333 105/160/334 16/16/335 15/15/336 
f 78/78/337 107/168/338 106/172/339 15/15/340 
f 25/163/341 108/135/342 107/168/343 78/78/344 
f 109/109/345 108/108/346 25/180/347 44/157/348 
f 110/110/349 109/109/350 44/157/351 65/65/352 
f 111/111/353 110/110/354 65/65/355 66/66/356 
f 43/138/357 112/141/358 111/111/359 66/66/360 
f 113/113/361 112/112/362 43/179/363 36/36/364 
f 114/114/365 113/113/366 36/36/367 37/37/368 
s 28
f 45/177/369 115/115/370 114/114/371 37/37/372 
f 45/177/369 46/176/373 116/116/374 115/115/370 
f 13/118/319 101/119/318 116/116/374 46/176/373 
#end 114 faces

#begin properties
#U3DPROPERTIES_00 table {Mesh table {SymPlane table {Point vector3d 0 0 0  Normal vector3d 1 0 0  Threshold double 0.01 Enabled bool false } Maps table {Density table {PrimType string "Polygon" Size int 1 DefaultValue double 1 ScaleType string "Log" MinValue double 0.1 MaxValue double 4 Data doubles { r 114 1 } } Pin table {PrimType string "Vertex" Size int 1 DefaultValue double 0 ScaleType string "Normalized" MinValue double 0 MaxValue double 1 Data doubles { r 193 0 } } Protect table {PrimType string "Vertex" Size int 1 DefaultValue double 0 ScaleType string "Normalized" MinValue double -1 MaxValue double 1 Data doubles { r 193 0 } } } } }
#end properties

#begin 0 fatal error vertex (that Unfold3D cannot handle)
#end 0 fatal error vertex (that Unfold3D cannot handle)

#begin 0 error vertex
#end 0 error vertex
